<mxfile host="app.diagrams.net" modified="2022-01-18T19:24:33.351Z" agent="5.0 (X11)" etag="c8_tkvnM6fiSj6hdKPDr" version="16.3.0" type="github">
  <diagram id="C5RBs43oDa-KdzZeNtuy" name="Page-1">
    <mxGraphModel dx="1673" dy="892" grid="1" gridSize="10" guides="1" tooltips="1" connect="1" arrows="1" fold="1" page="1" pageScale="1" pageWidth="827" pageHeight="1169" math="0" shadow="0">
      <root>
        <mxCell id="WIyWlLk6GJQsqaUBKTNV-0" />
        <mxCell id="WIyWlLk6GJQsqaUBKTNV-1" parent="WIyWlLk6GJQsqaUBKTNV-0" />
        <mxCell id="zkfFHV4jXpPFQw0GAbJ--0" value="POSTS" style="swimlane;fontStyle=2;align=center;verticalAlign=top;childLayout=stackLayout;horizontal=1;startSize=26;horizontalStack=0;resizeParent=1;resizeLast=0;collapsible=1;marginBottom=0;rounded=0;shadow=0;strokeWidth=1;" parent="WIyWlLk6GJQsqaUBKTNV-1" vertex="1">
          <mxGeometry x="10" y="10" width="110" height="140" as="geometry">
            <mxRectangle x="230" y="140" width="160" height="26" as="alternateBounds" />
          </mxGeometry>
        </mxCell>
        <mxCell id="zkfFHV4jXpPFQw0GAbJ--3" value="id&#xa;title&#xa;content&#xa;image&#xa;created_at&#xa;author_id&#xa;" style="text;align=left;verticalAlign=top;spacingLeft=4;spacingRight=4;overflow=hidden;rotatable=0;points=[[0,0.5],[1,0.5]];portConstraint=eastwest;rounded=0;shadow=0;html=0;" parent="zkfFHV4jXpPFQw0GAbJ--0" vertex="1">
          <mxGeometry y="26" width="110" height="104" as="geometry" />
        </mxCell>
        <mxCell id="zkfFHV4jXpPFQw0GAbJ--4" value="" style="line;html=1;strokeWidth=1;align=left;verticalAlign=middle;spacingTop=-1;spacingLeft=3;spacingRight=3;rotatable=0;labelPosition=right;points=[];portConstraint=eastwest;" parent="zkfFHV4jXpPFQw0GAbJ--0" vertex="1">
          <mxGeometry y="130" width="110" height="10" as="geometry" />
        </mxCell>
        <mxCell id="zkfFHV4jXpPFQw0GAbJ--6" value="USERS" style="swimlane;fontStyle=0;align=center;verticalAlign=top;childLayout=stackLayout;horizontal=1;startSize=26;horizontalStack=0;resizeParent=1;resizeLast=0;collapsible=1;marginBottom=0;rounded=0;shadow=0;strokeWidth=1;" parent="WIyWlLk6GJQsqaUBKTNV-1" vertex="1">
          <mxGeometry x="254" y="180" width="160" height="122" as="geometry">
            <mxRectangle x="130" y="380" width="160" height="26" as="alternateBounds" />
          </mxGeometry>
        </mxCell>
        <mxCell id="zkfFHV4jXpPFQw0GAbJ--8" value="id&#xa;name&#xa;email&#xa;password&#xa;role_id&#xa;" style="text;align=left;verticalAlign=top;spacingLeft=4;spacingRight=4;overflow=hidden;rotatable=0;points=[[0,0.5],[1,0.5]];portConstraint=eastwest;rounded=0;shadow=0;html=0;" parent="zkfFHV4jXpPFQw0GAbJ--6" vertex="1">
          <mxGeometry y="26" width="160" height="88" as="geometry" />
        </mxCell>
        <mxCell id="zkfFHV4jXpPFQw0GAbJ--9" value="" style="line;html=1;strokeWidth=1;align=left;verticalAlign=middle;spacingTop=-1;spacingLeft=3;spacingRight=3;rotatable=0;labelPosition=right;points=[];portConstraint=eastwest;" parent="zkfFHV4jXpPFQw0GAbJ--6" vertex="1">
          <mxGeometry y="114" width="160" height="8" as="geometry" />
        </mxCell>
        <mxCell id="zkfFHV4jXpPFQw0GAbJ--13" value="CATEGORIES_POSTS" style="swimlane;fontStyle=0;align=center;verticalAlign=top;childLayout=stackLayout;horizontal=1;startSize=26;horizontalStack=0;resizeParent=1;resizeLast=0;collapsible=1;marginBottom=0;rounded=0;shadow=0;strokeWidth=1;" parent="WIyWlLk6GJQsqaUBKTNV-1" vertex="1">
          <mxGeometry x="330" y="360" width="160" height="100" as="geometry">
            <mxRectangle x="330" y="360" width="170" height="26" as="alternateBounds" />
          </mxGeometry>
        </mxCell>
        <mxCell id="zkfFHV4jXpPFQw0GAbJ--14" value="id&#xa;post_id&#xa;categoru_id&#xa;" style="text;align=left;verticalAlign=top;spacingLeft=4;spacingRight=4;overflow=hidden;rotatable=0;points=[[0,0.5],[1,0.5]];portConstraint=eastwest;" parent="zkfFHV4jXpPFQw0GAbJ--13" vertex="1">
          <mxGeometry y="26" width="160" height="64" as="geometry" />
        </mxCell>
        <mxCell id="zkfFHV4jXpPFQw0GAbJ--15" value="" style="line;html=1;strokeWidth=1;align=left;verticalAlign=middle;spacingTop=-1;spacingLeft=3;spacingRight=3;rotatable=0;labelPosition=right;points=[];portConstraint=eastwest;" parent="zkfFHV4jXpPFQw0GAbJ--13" vertex="1">
          <mxGeometry y="90" width="160" height="8" as="geometry" />
        </mxCell>
        <mxCell id="zkfFHV4jXpPFQw0GAbJ--17" value="CATEGORIES" style="swimlane;fontStyle=0;align=center;verticalAlign=top;childLayout=stackLayout;horizontal=1;startSize=26;horizontalStack=0;resizeParent=1;resizeLast=0;collapsible=1;marginBottom=0;rounded=0;shadow=0;strokeWidth=1;" parent="WIyWlLk6GJQsqaUBKTNV-1" vertex="1">
          <mxGeometry x="620" y="40" width="160" height="90" as="geometry">
            <mxRectangle x="550" y="140" width="160" height="26" as="alternateBounds" />
          </mxGeometry>
        </mxCell>
        <mxCell id="zkfFHV4jXpPFQw0GAbJ--18" value="id&#xa;name&#xa;parent_id&#xa;" style="text;align=left;verticalAlign=top;spacingLeft=4;spacingRight=4;overflow=hidden;rotatable=0;points=[[0,0.5],[1,0.5]];portConstraint=eastwest;" parent="zkfFHV4jXpPFQw0GAbJ--17" vertex="1">
          <mxGeometry y="26" width="160" height="54" as="geometry" />
        </mxCell>
        <mxCell id="zkfFHV4jXpPFQw0GAbJ--23" value="" style="line;html=1;strokeWidth=1;align=left;verticalAlign=middle;spacingTop=-1;spacingLeft=3;spacingRight=3;rotatable=0;labelPosition=right;points=[];portConstraint=eastwest;" parent="zkfFHV4jXpPFQw0GAbJ--17" vertex="1">
          <mxGeometry y="80" width="160" height="8" as="geometry" />
        </mxCell>
        <mxCell id="bLb_xOQ1ATcK7DPxJKpz-11" value="" style="endArrow=none;html=1;rounded=0;exitX=1.006;exitY=0.759;exitDx=0;exitDy=0;exitPerimeter=0;entryX=1.01;entryY=0.267;entryDx=0;entryDy=0;entryPerimeter=0;" edge="1" parent="zkfFHV4jXpPFQw0GAbJ--17" source="zkfFHV4jXpPFQw0GAbJ--18" target="zkfFHV4jXpPFQw0GAbJ--18">
          <mxGeometry width="50" height="50" relative="1" as="geometry">
            <mxPoint x="157" y="80" as="sourcePoint" />
            <mxPoint x="207" y="30" as="targetPoint" />
            <Array as="points">
              <mxPoint x="177" y="60" />
              <mxPoint x="177" y="50" />
            </Array>
          </mxGeometry>
        </mxCell>
        <mxCell id="bLb_xOQ1ATcK7DPxJKpz-3" value="" style="endArrow=classic;html=1;rounded=0;" edge="1" parent="WIyWlLk6GJQsqaUBKTNV-1" source="zkfFHV4jXpPFQw0GAbJ--3">
          <mxGeometry relative="1" as="geometry">
            <mxPoint x="150" y="220" as="sourcePoint" />
            <mxPoint x="250" y="220" as="targetPoint" />
          </mxGeometry>
        </mxCell>
        <mxCell id="bLb_xOQ1ATcK7DPxJKpz-8" value="COMMENTS" style="swimlane;fontStyle=0;align=center;verticalAlign=top;childLayout=stackLayout;horizontal=1;startSize=26;horizontalStack=0;resizeParent=1;resizeLast=0;collapsible=1;marginBottom=0;rounded=0;shadow=0;strokeWidth=1;" vertex="1" parent="WIyWlLk6GJQsqaUBKTNV-1">
          <mxGeometry x="510" y="180" width="160" height="122" as="geometry">
            <mxRectangle x="130" y="380" width="160" height="26" as="alternateBounds" />
          </mxGeometry>
        </mxCell>
        <mxCell id="bLb_xOQ1ATcK7DPxJKpz-9" value="id&#xa;message&#xa;user_id&#xa;created_id&#xa;status&#xa;post_id&#xa;" style="text;align=left;verticalAlign=top;spacingLeft=4;spacingRight=4;overflow=hidden;rotatable=0;points=[[0,0.5],[1,0.5]];portConstraint=eastwest;rounded=0;shadow=0;html=0;" vertex="1" parent="bLb_xOQ1ATcK7DPxJKpz-8">
          <mxGeometry y="26" width="160" height="88" as="geometry" />
        </mxCell>
        <mxCell id="bLb_xOQ1ATcK7DPxJKpz-10" value="" style="line;html=1;strokeWidth=1;align=left;verticalAlign=middle;spacingTop=-1;spacingLeft=3;spacingRight=3;rotatable=0;labelPosition=right;points=[];portConstraint=eastwest;" vertex="1" parent="bLb_xOQ1ATcK7DPxJKpz-8">
          <mxGeometry y="114" width="160" height="8" as="geometry" />
        </mxCell>
        <mxCell id="bLb_xOQ1ATcK7DPxJKpz-12" value="" style="endArrow=none;html=1;rounded=0;entryX=1.004;entryY=0.126;entryDx=0;entryDy=0;entryPerimeter=0;exitX=1.022;exitY=0.739;exitDx=0;exitDy=0;exitPerimeter=0;" edge="1" parent="WIyWlLk6GJQsqaUBKTNV-1" source="zkfFHV4jXpPFQw0GAbJ--14" target="zkfFHV4jXpPFQw0GAbJ--18">
          <mxGeometry width="50" height="50" relative="1" as="geometry">
            <mxPoint x="790" y="120" as="sourcePoint" />
            <mxPoint x="840" y="70" as="targetPoint" />
            <Array as="points">
              <mxPoint x="810" y="430" />
              <mxPoint x="820" y="93" />
            </Array>
          </mxGeometry>
        </mxCell>
        <mxCell id="bLb_xOQ1ATcK7DPxJKpz-14" value="" style="endArrow=none;html=1;rounded=0;entryX=-0.02;entryY=0.462;entryDx=0;entryDy=0;entryPerimeter=0;" edge="1" parent="WIyWlLk6GJQsqaUBKTNV-1" target="bLb_xOQ1ATcK7DPxJKpz-9">
          <mxGeometry width="50" height="50" relative="1" as="geometry">
            <mxPoint x="420" y="219" as="sourcePoint" />
            <mxPoint x="490" y="220" as="targetPoint" />
            <Array as="points">
              <mxPoint x="440" y="219" />
              <mxPoint x="450" y="219" />
              <mxPoint x="470" y="219" />
            </Array>
          </mxGeometry>
        </mxCell>
      </root>
    </mxGraphModel>
  </diagram>
</mxfile>
